<?xml version="1.0" encoding="utf-8"?>
<!-- Generator: Adobe Illustrator 26.1.0, SVG Export Plug-In . SVG Version: 6.00 Build 0)  -->
<svg version="1.1" id="Layer_1" xmlns="http://www.w3.org/2000/svg" xmlns:xlink="http://www.w3.org/1999/xlink" x="0px" y="0px"
	 viewBox="0 0 1920 800" style="enable-background:new 0 0 1920 800;" xml:space="preserve">
<style type="text/css">
	.st0{stroke:#000000;}
	.st1{stroke:#000000;stroke-miterlimit:10;}
	.st2{fill:#FCFCFC;stroke:#000000;}
</style>
<path class="st0" d="M846,445"/>
<path class="st0" d="M1085,445.2"/>
<g>
	<path class="st1" d="M543.6,90"/>
</g>
<g>
	<path class="st1" d="M1126.2,418.6"/>
</g>
<polygon class="st2" points="1897,784.4 1670.4,784.4 1670.2,161.5 1272.3,784.4 457.7,784.4 563,639.8 848.3,247.7 911.7,162.6 
	227.7,162.6 228.9,285 570.2,280.5 455.7,433.2 227.9,437.7 228.7,784.4 23.4,784.4 23.4,14.6 1260.2,14.6 1212.8,81.3 
	1155.1,162.6 817.1,638.6 945.1,638.7 944.7,639.1 1088.8,638.9 1088.9,638.8 1147.3,638.8 1565.9,14.6 1894.7,14.6 1895.7,382.6 
	"/>
</svg>
